<svg class="ldi-fsk0d9" width="200px"  height="200px"  xmlns="http://www.w3.org/2000/svg" xmlns:xlink="http://www.w3.org/1999/xlink" viewBox="0 0 100 100" preserveAspectRatio="xMidYMid" style="background: none;"><!--?xml version="1.0" encoding="utf-8"?--><!--Generator: Adobe Illustrator 21.0.0, SVG Export Plug-In . SVG Version: 6.00 Build 0)--><svg version="1.1" id="圖層_1" xmlns="http://www.w3.org/2000/svg" xmlns:xlink="http://www.w3.org/1999/xlink" x="0px" y="0px" viewBox="0 0 100 100" style="transform-origin: 50px 50px 0px;" xml:space="preserve"><g style="transform-origin: 50px 50px 0px;"><g style="transform-origin: 50px 50px 0px; transform: scale(0.6);"><g style="transform-origin: 50px 50px 0px;"><g><style type="text/css" style="transform-origin: 50px 50px 0px; animation-duration: 4.3s; animation-delay: -4.3s; animation-direction: normal;" class="ld ld-pulse">.st0{fill-rule:evenodd;clip-rule:evenodd;fill:#FFDC6C;} .st1{fill:none;stroke:#F8B26A;stroke-width:2.6883;stroke-linecap:round;stroke-miterlimit:10;} .st2{fill:#353035;} .st3{fill:#FFDC6C;} .st4{fill-rule:evenodd;clip-rule:evenodd;fill:#E15B64;} .st5{fill:#F8B26A;} .st6{fill-rule:evenodd;clip-rule:evenodd;fill:#A0C8D7;} .st7{fill-rule:evenodd;clip-rule:evenodd;fill:#B5B5B5;} .st8{fill:#A0C8D7;} .st9{fill-rule:evenodd;clip-rule:evenodd;fill:#F8B26A;} .st10{fill-rule:evenodd;clip-rule:evenodd;fill:#E0E0E0;stroke:#000000;stroke-width:3.8366;stroke-linecap:round;stroke-miterlimit:10;} .st11{fill-rule:evenodd;clip-rule:evenodd;fill:#FFDC6C;stroke:#F47E60;stroke-width:4;stroke-miterlimit:10;} .st12{fill-rule:evenodd;clip-rule:evenodd;fill:#E0E0E0;stroke:#000000;stroke-width:5;stroke-linecap:round;stroke-miterlimit:10;} .st13{fill:#B5B5B5;} .st14{fill-rule:evenodd;clip-rule:evenodd;fill:#E0E0E0;} .st15{fill-rule:evenodd;clip-rule:evenodd;fill:#E0E0E0;stroke:#000000;stroke-width:6.8207;stroke-linecap:round;stroke-miterlimit:10;} .st16{fill:#E0E0E0;} .st17{fill:#E0E0E0;stroke:#FFFFFF;stroke-width:3;stroke-miterlimit:10;} .st18{fill:#77A4BD;} .st19{fill-rule:evenodd;clip-rule:evenodd;fill:#E0E0E0;stroke:#000000;stroke-width:4;stroke-linecap:round;stroke-miterlimit:10;} .st20{fill:#F8B26A;stroke:#000000;stroke-width:3;stroke-miterlimit:10;} .st21{fill:none;stroke:#F8B26A;stroke-width:4.5884;stroke-linecap:round;stroke-miterlimit:10;} .st22{fill:#333333;} .st23{fill:#666666;} .st24{fill:#F47E60;} .st25{fill:#E15B64;} .st26{fill:#C33737;} .st27{fill:none;stroke:#77A4BD;stroke-width:4;stroke-linecap:round;stroke-miterlimit:10;} .st28{fill:none;stroke:#A0C8D7;stroke-width:4;stroke-linecap:round;stroke-miterlimit:10;} .st29{fill:none;stroke:#77A4BD;stroke-width:3.5;stroke-linecap:round;stroke-miterlimit:10;} .st30{fill:none;stroke:#A0C8D7;stroke-width:3.5;stroke-linecap:round;stroke-miterlimit:10;} .st31{fill-rule:evenodd;clip-rule:evenodd;fill:#F5E6C8;} .st32{fill:#E6E6E6;} .st33{fill:none;} .st34{fill:#849B87;} .st35{fill:none;stroke:#C33737;stroke-width:3;stroke-linecap:round;stroke-miterlimit:10;} .st36{fill:#F5E6C8;} .st37{fill:none;stroke:#F8B26A;stroke-width:1.8792;stroke-linecap:round;stroke-miterlimit:10;} .st38{fill:#998675;} .st39{fill:#736357;} .st40{fill-rule:evenodd;clip-rule:evenodd;fill:#80AAF3;} .st41{fill:none;stroke:#A0C8D7;stroke-width:3;stroke-linecap:round;stroke-miterlimit:10;} .st42{fill:none;stroke:#77A4BD;stroke-width:3;stroke-linecap:round;stroke-miterlimit:10;} .st43{fill:none;stroke:#F5E169;stroke-width:4.588;stroke-linecap:round;stroke-miterlimit:10;} .st44{fill:none;stroke:#F8B26A;stroke-width:4.588;stroke-linecap:round;stroke-miterlimit:10;} .st45{fill:none;stroke:#F47E60;stroke-width:4.588;stroke-linecap:round;stroke-miterlimit:10;} .st46{fill:none;stroke:#E15B64;stroke-width:4.588;stroke-linecap:round;stroke-miterlimit:10;} .st47{fill:none;stroke:#E15B64;stroke-width:8;stroke-miterlimit:10;} .st48{fill:none;stroke:#F8B26A;stroke-width:8;stroke-miterlimit:10;} .st49{fill:none;stroke:#ABBD81;stroke-width:8;stroke-miterlimit:10;} .st50{fill:none;stroke:#E15B64;stroke-width:4;stroke-miterlimit:10;} .st51{fill:none;stroke:#F8B26A;stroke-width:4;stroke-miterlimit:10;} .st52{fill:none;stroke:#F5E6C8;stroke-width:4;stroke-miterlimit:10;} .st53{fill:none;stroke:#ABBD81;stroke-width:4;stroke-miterlimit:10;} .st54{fill:none;stroke:#A0C8D7;stroke-width:4;stroke-miterlimit:10;} .st55{fill:none;stroke:#B295E3;stroke-width:4;stroke-miterlimit:10;}</style><g style="transform-origin: 50px 50px 0px; animation-duration: 4.3s; animation-delay: -4.03125s; animation-direction: normal;" class="ld ld-pulse"><path class="st7" d="M88,69.7c0.2-0.7,0.4-1.5,0.4-2.3c0-4.2-3.4-7.7-7.7-7.7c-2.9,0-5.5,1.6-6.8,4.1c-0.5-0.2-1-0.2-1.5-0.2 c-2.8,0-5.1,2.3-5.1,5.1c0,0.4,0,0.7,0.1,1c-1.5,0.2-2.8,1.1-3.6,2.3c0,0-0.1,0-0.1,0c0.2-0.6,0.2-1.1,0.2-1.8 c-0.1-0.8-0.4-1.5-0.9-2.2c-2.2-2.7-4-3.1-5.6-2.9c-1.2-2.6-3.9-4.5-7.2-4.5c-3.8,0-7,2.5-7.6,5.9c-0.6,0.1-1.2,0.4-1.7,0.7 c-0.4-0.2-0.9-0.3-1.4-0.4c0.3-0.9,0.5-1.9,0.5-2.9c0-5.4-4.3-9.7-9.7-9.7c-3.7,0-6.9,2.1-8.6,5.1C21,59.1,20.3,59,19.6,59 c-3.6,0-6.5,2.9-6.5,6.5c0,0.4,0,0.9,0.1,1.3c-3.3,0.5-5.8,3.4-5.8,6.8c0,3.8,3.1,6.9,6.9,6.9h23.9c0.2,0,0.4,0,0.7,0 c0.4,0.1,0.8,0,1.2,0v0h10.3h12h5.8H78h9c3,0,5.4-2.4,5.4-5.4C92.5,72.4,90.6,70.1,88,69.7z" fill="#eab145" style="fill: rgb(234, 177, 69);"></path></g><g style="transform-origin: 50px 50px 0px; animation-duration: 4.3s; animation-delay: -3.7625s; animation-direction: normal;" class="ld ld-pulse"><path class="st33" d="M23.6,55.4C25,42,36.3,31.5,50,31.5c14.6,0,26.5,11.9,26.5,26.5c0,0.6,0,1.2-0.1,1.8c0.3-0.2,0.7-0.4,1-0.5 c0-0.4,0-0.9,0-1.3c0-15.2-12.3-27.5-27.5-27.5c-14.6,0-26.6,11.4-27.4,25.8C22.9,56,23.3,55.7,23.6,55.4z"></path></g><g style="transform-origin: 50px 50px 0px; animation-duration: 4.3s; animation-delay: -3.49375s; animation-direction: normal;" class="ld ld-pulse"><path class="st33" d="M50,24.5c-18.5,0-33.5,15-33.5,33.5c0,0.2,0,0.5,0,0.7c0.3-0.1,0.6-0.3,1-0.4c0-0.1,0-0.2,0-0.3 c0-17.9,14.6-32.5,32.5-32.5S82.5,40.1,82.5,58c0,0.3,0,0.6,0,0.9c0.3,0.1,0.7,0.2,1,0.3c0-0.4,0-0.8,0-1.2 C83.5,39.6,68.5,24.5,50,24.5z"></path></g><g style="transform-origin: 50px 50px 0px; animation-duration: 4.3s; animation-delay: -3.225s; animation-direction: normal;" class="ld ld-pulse"><path class="st25" d="M16.5,58.7c0-0.2,0-0.5,0-0.7c0-18.5,15-33.5,33.5-33.5s33.5,15,33.5,33.5c0,0.4,0,0.8,0,1.2 c2,0.7,3.7,2.1,4.7,3.8c0.2-1.6,0.3-3.3,0.3-5c0-21.2-17.3-38.5-38.5-38.5S11.5,36.8,11.5,58c0,2.4,0.2,4.8,0.7,7.1 C12.3,62.3,14,59.9,16.5,58.7z" fill="#fad96d" style="fill: rgb(250, 217, 109);"></path></g><g style="transform-origin: 50px 50px 0px; animation-duration: 4.3s; animation-delay: -2.95625s; animation-direction: normal;" class="ld ld-pulse"><path class="st5" d="M21.1,58.2c0.4-0.7,0.9-1.3,1.5-1.8C23.4,42,35.4,30.5,50,30.5c15.2,0,27.5,12.3,27.5,27.5c0,0.4,0,0.9,0,1.3 c1-0.4,2.1-0.6,3.2-0.6c0.6,0,1.2,0.1,1.8,0.2c0-0.3,0-0.6,0-0.9c0-17.9-14.6-32.5-32.5-32.5S17.5,40.1,17.5,58c0,0.1,0,0.2,0,0.3 c0.7-0.2,1.4-0.3,2.1-0.3C20.1,58,20.6,58.1,21.1,58.2z" fill="#959795" style="fill: rgb(149, 151, 149);"></path></g><g style="transform-origin: 50px 50px 0px; animation-duration: 4.3s; animation-delay: -2.6875s; animation-direction: normal;" class="ld ld-pulse"><path class="st34" d="M50,36.5c11.9,0,21.5,9.6,21.5,21.5c0,1.6-0.2,3.2-0.5,4.7c0.5-0.1,0.9-0.2,1.4-0.2c0.4,0,0.7,0,1.1,0.1 c0.8-1.2,1.8-2.1,3-2.8c0-0.6,0.1-1.2,0.1-1.8c0-14.6-11.9-26.5-26.5-26.5c-13.7,0-25,10.5-26.4,23.9c1.6-1.2,3.4-1.9,5.4-2.2 C31.2,43.7,39.8,36.5,50,36.5z" fill="#4a6985" style="fill: rgb(74, 105, 133);"></path></g><metadata xmlns:d="https://loading.io/stock/" style="transform-origin: 50px 50px 0px; animation-duration: 4.3s; animation-delay: -2.41875s; animation-direction: normal;" class="ld ld-pulse">
<d:name style="transform-origin: 50px 50px 0px; animation-duration: 4.3s; animation-delay: -2.15s; animation-direction: normal;" class="ld ld-pulse">rainbow</d:name>
<d:tags style="transform-origin: 50px 50px 0px; animation-duration: 4.3s; animation-delay: -1.88125s; animation-direction: normal;" class="ld ld-pulse">cloud,arc,prism,ring,band,spectrum,curve,rainbow,weather</d:tags>
<d:license style="transform-origin: 50px 50px 0px; animation-duration: 4.3s; animation-delay: -1.6125s; animation-direction: normal;" class="ld ld-pulse">rf</d:license>
<d:slug style="transform-origin: 50px 50px 0px; animation-duration: 4.3s; animation-delay: -1.34375s; animation-direction: normal;" class="ld ld-pulse">fsk0d9</d:slug>
</metadata></g></g></g></g><style type="text/css" style="transform-origin: 50px 50px 0px; animation-duration: 4.3s; animation-delay: -1.075s; animation-direction: normal;" class="ld ld-pulse">@keyframes ld-pulse {
  0% {
    -webkit-transform: scale(1.1);
    transform: scale(1.1);
  }
  50% {
    -webkit-transform: scale(0.9);
    transform: scale(0.9);
  }
  51% {
    -webkit-transform: scale(1.1);
    transform: scale(1.1);
  }
  100% {
    -webkit-transform: scale(0.9);
    transform: scale(0.9);
  }
}
@-webkit-keyframes ld-pulse {
  0% {
    -webkit-transform: scale(1.1);
    transform: scale(1.1);
  }
  50% {
    -webkit-transform: scale(0.9);
    transform: scale(0.9);
  }
  51% {
    -webkit-transform: scale(1.1);
    transform: scale(1.1);
  }
  100% {
    -webkit-transform: scale(0.9);
    transform: scale(0.9);
  }
}
.ld.ld-pulse {
  -webkit-animation: ld-pulse 0.8s infinite cubic-bezier(0.215, 0.61, 0.355, 1);
  animation: ld-pulse 0.8s infinite cubic-bezier(0.215, 0.61, 0.355, 1);
}
</style></svg></svg>